<?xml version="1.0" encoding="UTF-8"?>
<svg width="250" height="100" viewBox="0 0 250 100" xmlns="http://www.w3.org/2000/svg">
  <style>
    .logo-text { fill: #999999; }
    .logo-icon { fill: #45d509; }
  </style>
  <g>
    <!-- UNAB House Icon -->
    <g class="logo-icon">
      <rect x="10" y="10" width="60" height="60" rx="8" />
      <path d="M40 15 L15 35 L15 65 L65 65 L65 35 L40 15 Z" fill="black" />
      <path d="M40 10 L10 35 L10 70 L70 70 L70 35 L40 10 Z" />
      <rect x="25" y="40" width="10" height="15" rx="2" fill="black" />
      <rect x="45" y="40" width="10" height="15" rx="2" fill="black" />
    </g>
    
    <!-- Text UNAB -->
    <g class="logo-icon" transform="translate(10, 80)">
      <path d="M0 0 L8 0 L8 15 L16 15 L16 0 L24 0 L24 20 L0 20 Z" />
      <path d="M26 0 L50 0 L50 20 L42 20 L42 7 L34 7 L34 20 L26 20 Z" />
      <path d="M52 0 L65 0 L75 20 L66 20 L64 16 L53 16 L51 20 L42 20 Z M55 10 L62 10 L59 4 Z" />
      <path d="M75 0 L96 0 L100 5 L97 10 L100 15 L96 20 L75 20 L75 0 Z M83 7 L90 7 L90 13 L83 13 Z" />
    </g>
    
    <!-- Text Ingeniería Biomédica -->
    <g class="logo-text" transform="translate(90, 35)">
      <path d="M5 0 L12 0 L12 3 L5 3 L5 0 Z M5 5 L12 5 L12 25 L5 25 L5 5 Z" />
      <path d="M15 5 L22 5 L22 7 C23 5 26 4 28 4 C35 4 36 9 36 14 L36 25 L29 25 L29 15 C29 12 29 10 26 10 C23 10 22 12 22 15 L22 25 L15 25 L15 5 Z" />
      <path d="M45 0 L60 0 L65 4 L65 10 L60 14 L64 25 L57 25 L54 15 L50 15 L50 25 L43 25 L43 0 Z M50 5 L50 10 L56 10 L56 5 Z" />
      <path d="M67 5 L74 5 L74 7 C75 5 78 4 80 4 C87 4 88 9 88 14 L88 25 L81 25 L81 15 C81 12 81 10 78 10 C75 10 74 12 74 15 L74 25 L67 25 L67 5 Z" />
      <path d="M90 5 L97 5 L97 7 C98 5 101 4 103 4 C110 4 111 9 111 14 L111 25 L104 25 L104 15 C104 12 104 10 101 10 C98 10 97 12 97 15 L97 25 L90 25 L90 5 Z" />
      <path d="M120 0 L127 0 L127 3 L120 3 L120 0 Z M120 5 L127 5 L127 25 L120 25 L120 5 Z" />
      <path d="M130 5 L137 5 L137 7 C138 5 141 4 143 4 C150 4 151 9 151 14 L151 25 L144 25 L144 15 C144 12 144 10 141 10 C138 10 137 12 137 15 L137 25 L130 25 L130 5 Z" />
    </g>
    <g class="logo-text" transform="translate(90, 65)">
      <path d="M5 5 L13 5 L20 25 L12 25 L11 21 L7 21 L6 25 L-2 25 Z M8 15 L10 15 L9 12 Z" />
      <path d="M35 0 L35 5 C33 4 30 4 28 4 C24 4 22 6 22 8 C22 16 40 12 40 21 C40 25 36 26 29 26 C26 26 22 26 20 25 L20 20 C22 21 26 21 29 21 C33 21 35 20 35 18 C35 10 17 14 17 7 C17 3 21 0 28 0 C31 0 33 0 35 0 Z" />
      <path d="M50 0 L57 0 L57 25 L50 25 L50 0 Z" />
      <path d="M61 5 L69 5 L72 18 L75 5 L82 5 L76 25 L69 25 L61 5 Z" />
      <path d="M85 15 C85 6 90 4 96 4 C102 4 107 6 107 15 C107 24 102 26 96 26 C90 26 85 24 85 15 Z M92 15 C92 20 94 21 96 21 C98 21 100 20 100 15 C100 10 98 9 96 9 C94 9 92 10 92 15 Z" />
      <path d="M115 5 L122 5 L122 25 L115 25 L115 5 Z M115 0 L122 0 L122 3 L115 3 L115 0 Z" />
      <path d="M131 19 L131 25 C129 26 126 26 124 26 C117 26 115 22 115 15 C115 8 118 4 125 4 C132 4 134 9 134 15 L134 17 L122 17 C122 20 124 21 127 21 C129 21 130 21 131 19 Z M122 13 L127 13 C127 11 126 9 124 9 C123 9 122 11 122 13 Z" />
      <path d="M140 4 L140 0 L147 0 L147 4 L150 4 L150 9 L147 9 L147 17 C147 19 147 20 149 20 C149 20 150 20 150 20 L150 25 C149 25 148 26 146 26 C142 26 140 24 140 20 L140 9 L138 9 L138 4 Z" />
    </g>
  </g>
</svg>