<?xml version="1.0" encoding="UTF-8"?>
<svg width="120" height="120" viewBox="0 0 120 120" xmlns="http://www.w3.org/2000/svg">
  <style>
    .primary-color { fill: #45d509; }
    .secondary-color { fill: #333333; }
    .accent-color { fill: #FFFFFF; }
  </style>
  
  <!-- Fondo circular -->
  <circle cx="60" cy="60" r="55" class="primary-color" opacity="0.1"/>
  
  <!-- Gorro de graduación -->
  <path d="M60 25L20 45L60 65L100 45L60 25Z" class="primary-color"/>
  <path d="M85 50V70C85 75 75 85 60 85C45 85 35 75 35 70V50" class="secondary-color" fill="none" stroke="#45d509" stroke-width="4"/>
  <rect x="58" y="75" width="4" height="15" class="secondary-color"/>
  <rect x="53" y="90" width="14" height="3" class="secondary-color"/>
  
  <!-- Silueta de persona -->
  <circle cx="60" cy="35" r="10" class="accent-color" stroke="#45d509" stroke-width="2"/>
  
  <!-- Libro -->
  <rect x="40" y="55" width="40" height="30" rx="2" class="accent-color" stroke="#333333" stroke-width="2"/>
  <path d="M60 55V85" stroke="#333333" stroke-width="2"/>
  <path d="M45 60H55M45 65H55M45 70H55" stroke="#333333" stroke-width="1.5"/>
  <path d="M65 60H75M65 65H75M65 70H75" stroke="#333333" stroke-width="1.5"/>
</svg>