<?xml version="1.0" encoding="UTF-8"?>
<svg width="120" height="120" viewBox="0 0 120 120" xmlns="http://www.w3.org/2000/svg">
  <style>
    .primary-color { fill: #45d509; }
    .secondary-color { fill: #333333; }
    .accent-color { fill: #FFFFFF; }
  </style>
  
  <!-- Fondo circular -->
  <circle cx="60" cy="60" r="55" class="primary-color" opacity="0.1"/>
  
  <!-- Silueta de profesor -->
  <circle cx="60" cy="35" r="15" class="accent-color" stroke="#45d509" stroke-width="2"/>
  <path d="M60 50V55" stroke="#45d509" stroke-width="2"/>
  <path d="M40 85C40 70 50 65 60 65C70 65 80 70 80 85" stroke="#45d509" stroke-width="4" fill="none"/>
  
  <!-- Pizarra -->
  <rect x="30" y="75" width="60" height="40" rx="2" class="secondary-color"/>
  <rect x="32" y="77" width="56" height="36" rx="1" class="accent-color"/>
  
  <!-- Líneas de texto en la pizarra -->
  <path d="M38 85H82M38 90H70M38 95H75M38 100H65" stroke="#333333" stroke-width="1.5"/>
  
  <!-- Gafas -->
  <circle cx="53" cy="35" r="5" fill="none" stroke="#333333" stroke-width="1.5"/>
  <circle cx="67" cy="35" r="5" fill="none" stroke="#333333" stroke-width="1.5"/>
  <path d="M58 35H62" stroke="#333333" stroke-width="1.5"/>
  
  <!-- Marcador -->
  <rect x="80" y="60" width="4" height="15" rx="1" class="primary-color"/>
</svg>